# xmcd CD database file
# Generated: Thu May 3 10:55:14 2001 by KSCD
# 
# Track frame offsets:
#       150
#       21105
#       48207
#       73110
#       91575
#       112937
#       139845
#       163787
#       189720
#       202492
#       224070
#
# Disc length: 3317 seconds
#
# Revision: 2
# Processed by: cddbd v1.4b41PL1 Copyright (c) Steve Scherf et al.
# Submitted via: Kscd 1.2.7
#
DISCID=a50cf30b
DTITLE=Patty Clayton - A Matter of Time
DYEAR=1900
DGENRE=
TTITLE0=A Matter of Time
TTITLE1=Montana's Yesterday
TTITLE2=Her Pride
TTITLE3=Prarie in the Sky
TTITLE4=Mother's Day
TTITLE5=One Horse Stands Alone
TTITLE6=Yellow Moon Keep Shining
TTITLE7=An El Niño Story
TTITLE8=Gallop to Kansas
TTITLE9=Pale Horse, Pale Rider
TTITLE10=Across the Wide Missouri - Great Pioneer
EXTD=CWM2048 Copyright 2000, Cimarron Wind Music.\nAll rights reserved.\n\n
EXTD=www.cimarronwind.com
EXTT0=Patty Clayton, Cimarron Wind Music BMI
EXTT1=Patty Clayton, Cimarron Wind Music BMI
EXTT2=Patty Clayton, Cimarron Wind Music BMI
EXTT3=Mary McCaslin Folklore Productions ASCAP
EXTT4=Patty Clayton, Cimarron Wind Music BMI
EXTT5=Patty Clayton, Cimarron Wind Music BMI
EXTT6=as recorded by Patsy Montana, arranged by Patty Clayton
EXTT7=Patty Clayton, Cimarron Wind Music BMI
EXTT8=Wynwood Music, arranged by Patty Clayton
EXTT9=Patty Clayton, Cimarron Wind Music BMI
EXTT10=Traditional/Angela Moor Texadillo Music
PLAYORDER=
